<?xml version="1.0" encoding="utf-8"?>
<!-- Generator: Adobe Illustrator 19.0.0, SVG Export Plug-In . SVG Version: 6.00 Build 0)  -->
<svg version="1.1" id="图层_1" xmlns="http://www.w3.org/2000/svg" xmlns:xlink="http://www.w3.org/1999/xlink" x="0px" y="0px"
	 viewBox="-179 -20 600 600" style="enable-background:new -179 -20 600 600;" xml:space="preserve">
<style type="text/css">
	.st0{fill:#0cb4ce;}
</style>
<g>
	<path class="st0" d="M262.5,330.2c-6.8,0-13.7,2.9-18.5,7.9c-4.9,5-7.8,12.2-7.8,19.2c0,7.1,2.9,14.2,7.7,19.2
		c4.8,4.9,11.7,7.9,18.5,7.9s13.7-2.9,18.5-7.9c4.8-5,7.7-12.2,7.7-19.2c0-7.1-2.9-14.3-7.8-19.2
		C276.2,333.1,269.3,330.2,262.5,330.2z"/>
	<path class="st0" d="M-5.5,330.2c-6.8,0-13.7,2.9-18.5,7.9c-4.9,5-7.8,12.2-7.8,19.2c0,7.1,2.9,14.2,7.8,19.2
		c4.8,4.9,11.7,7.9,18.5,7.9c6.8,0,13.7-2.9,18.5-7.9l0,0c4.9-5,7.8-12.2,7.8-19.2c0-7.1-2.9-14.3-7.8-19.2
		C8.2,333.1,1.3,330.2-5.5,330.2z"/>
	<path class="st0" d="M12.6,261.9h231.7c3.2,0,5.8-1.1,7.3-2.9l0.1-0.1c1.7-2,2.4-5,1.9-8.4c0,0,0-0.1-0.1-0.3l-0.1-0.3l-18.3-81.5
		c-1.6-9.1-10.8-17.1-19.7-17.1H41.4c-8.9,0-18.1,8-19.7,17.1l-0.1,0.3L3.3,250.6c-0.5,3.2,0.2,6.1,1.7,8
		C7.2,261.3,10.4,261.9,12.6,261.9z M37.1,166.7h182.8l17.9,79.8H19.2L37.1,166.7z"/>
	<path class="st0" d="M361.6,319c-1.8-24.3-17.4-46.7-39.8-56.9l-3.6-1.6l-23.2-111.6c-7.5-36-42.7-65.3-78.5-65.3H40.4
		c-35.8,0-71,29.3-78.5,65.3l-23.2,111.6l-3.6,1.6c-22.4,10.2-38,32.5-39.7,56.9l-5.1,69.1c-1.9,26,12.4,49.9,35.4,59.6l3.6,1.5
		l0.9,3.8c5.2,20.8,23.4,35.4,44.3,35.4c19.5,0,36.4-12.1,42.9-30.9l1.8-5.2h218.2l1.8,5.2c6.6,18.8,23.4,30.9,42.9,30.9
		c20.9,0,39.1-14.6,44.3-35.4l0.9-3.8l3.6-1.5c23.1-9.7,37.3-33.6,35.4-59.6L361.6,319z M319.2,435.6c-3.2,0.8-5.5,3.7-5.7,7.1
		c-0.8,17-14.5,30.3-31.1,30.3c-16.2,0-29.6-12.5-31-29.1c-0.3-3.9-3.5-7-7.3-7H12.9c-3.8,0-6.9,3-7.3,7
		c-1.4,16.6-14.8,29.1-31,29.1c-16.6,0-30.3-13.3-31.1-30.3c-0.2-3.4-2.5-6.4-5.7-7.1c-21-5-34.5-24-32.9-46.3l5.1-69.1
		c1.5-21.1,17-40.2,37.6-46.5c2.8-0.9,4.8-3.4,5.2-6.4c0.1-0.7,0.1-1.5,0.2-2.2l0-0.3c0-0.5,0.1-1.3,0.3-2.2l22.9-110.3
		c6.1-29.3,34.9-53.2,64.3-53.2h176.1c29.3,0,58.2,23.9,64.3,53.2l22.9,110.4c0.2,0.7,0.2,1.5,0.3,2.1l0,0.4c0,0.7,0.1,1.3,0.2,2
		c0.4,3.2,2.4,5.7,5.2,6.6c20.6,6.3,36,25.4,37.6,46.5v0l5,69.1C353.7,411.6,340.2,430.6,319.2,435.6z"/>
</g>
</svg>
