<?xml version="1.0" encoding="utf-8"?>
<!-- Generator: Adobe Illustrator 19.0.0, SVG Export Plug-In . SVG Version: 6.00 Build 0)  -->
<svg version="1.1" id="图层_1" xmlns="http://www.w3.org/2000/svg" xmlns:xlink="http://www.w3.org/1999/xlink" x="0px" y="0px"
	 viewBox="-179 -20 600 600" style="enable-background:new -179 -20 600 600;" xml:space="preserve">
<style type="text/css">
	.st0{opacity:0.94;}
	.st1{enable-background:new    ;}
	.st2{fill:#FEE00D;stroke:#DABD00;stroke-width:6;stroke-linejoin:round;stroke-miterlimit:10;}
	.st3{fill:#FFE00E;stroke:#DABD00;stroke-width:6;stroke-linejoin:round;stroke-miterlimit:10;}
	.st4{fill:#ECD007;stroke:#DABD00;stroke-width:6;stroke-linejoin:round;stroke-miterlimit:10;}
	.st5{fill:#0cb4ce;}
</style>
<g class="st0">
	<g class="st1">
		<g>
			<polygon class="st2" points="2212.3,-123 2004.3,29.2 1751.2,-93.7 1960.1,-248.9 			"/>
		</g>
		<g>
			<polygon class="st3" points="2212.3,-123 2212.5,135.7 2003.6,288.9 2004.3,29.2 			"/>
		</g>
		<g>
			<polygon class="st4" points="2004.3,29.2 2003.6,288.9 1749.5,162 1751.2,-93.7 			"/>
		</g>
	</g>
</g>
<g>
	<path class="st5" d="M127.1,316.5l-18-5.9l15.8-10.4c35-23.1,55.9-61.5,55.9-102.8c0-67.6-55-122.7-122.7-122.7
		s-122.7,55-122.7,122.7c0,41.2,20.9,79.6,55.9,102.8l15.8,10.4l-18,5.9c-73.8,24.1-119.6,85.8-119.6,161c0,4.2,3.2,7.3,7.3,7.3
		c4.2,0,7.3-3.2,7.3-7.3c0-91.2,73.1-157.4,173.9-157.4S232,386.3,232,477.5c0,4.2,3.2,7.3,7.3,7.3c4.2,0,7.3-3.2,7.3-7.3
		C246.7,402.3,200.8,340.7,127.1,316.5z M-49.9,197.5c0-59.5,48.4-108,108-108c59.5,0,108,48.4,108,108c0,59.5-48.4,108-108,108
		C-1.4,305.4-49.9,257-49.9,197.5z"/>
	<path class="st5" d="M271.1,318.3l-16.6-6.8l15.3-9.4c37.1-22.9,59.3-62,59.3-104.6c0-67.6-55-122.7-122.7-122.7
		c-4.2,0-7.3,3.2-7.3,7.3c0,4.2,3.2,7.3,7.3,7.3c59.5,0,108,48.4,108,108c0,38.8-20.2,73.7-54,93.2c-12.9,7.9-20.9,17.6-20.2,24.5
		c0.6,5.7,7.2,11.1,18.8,15.3c62.7,22.3,104.8,81.5,104.8,147.3c0,4.2,3.2,7.3,7.3,7.3c4.2,0,7.3-3.2,7.3-7.3
		C378.4,407.5,336.3,344.9,271.1,318.3z"/>
</g>
</svg>
