<?xml version="1.0" encoding="utf-8"?>
<!-- Generator: Adobe Illustrator 19.0.0, SVG Export Plug-In . SVG Version: 6.00 Build 0)  -->
<svg version="1.1" id="图层_1" xmlns="http://www.w3.org/2000/svg" xmlns:xlink="http://www.w3.org/1999/xlink" x="0px" y="0px"
	 viewBox="-179 -20 600 600" style="enable-background:new -179 -20 600 600;" xml:space="preserve">
<style type="text/css">
	.st0{opacity:0.94;}
	.st1{enable-background:new    ;}
	.st2{fill:#FEE00D;stroke:#DABD00;stroke-width:6;stroke-linejoin:round;stroke-miterlimit:10;}
	.st3{fill:#FFE00E;stroke:#DABD00;stroke-width:6;stroke-linejoin:round;stroke-miterlimit:10;}
	.st4{fill:#ECD007;stroke:#DABD00;stroke-width:6;stroke-linejoin:round;stroke-miterlimit:10;}
	.st5{fill:#0cb4ce;}
</style>
<g class="st0">
	<g class="st1">
		<g>
			<polygon class="st2" points="2212.3,-123 2004.3,29.2 1751.2,-93.7 1960.1,-248.9 			"/>
		</g>
		<g>
			<polygon class="st3" points="2212.3,-123 2212.5,135.7 2003.6,288.9 2004.3,29.2 			"/>
		</g>
		<g>
			<polygon class="st4" points="2004.3,29.2 2003.6,288.9 1749.5,162 1751.2,-93.7 			"/>
		</g>
	</g>
</g>
<g>
	<path class="st5" d="M284,342.4H161.4c-5.1,0-7.5,2.4-7.5,7.5s2.4,7.5,7.5,7.5H284c5.2,0,7.5-2.3,7.5-7.5
		C291.6,344.8,289.2,342.4,284,342.4z"/>
	<path class="st5" d="M284,395H161.4c-5.1,0-7.5,2.4-7.5,7.5s2.4,7.5,7.5,7.5H284c5.2,0,7.5-2.3,7.5-7.5
		C291.6,397.4,289.2,395,284,395z"/>
	<path class="st5" d="M284,289.9H161.4c-5.1,0-7.5,2.4-7.5,7.5s2.4,7.5,7.5,7.5H284c5.2,0,7.5-2.3,7.5-7.5
		C291.6,292.3,289.2,289.9,284,289.9z"/>
	<path class="st5" d="M284,237.3H161.4c-5.1,0-7.5,2.4-7.5,7.5s2.4,7.5,7.5,7.5H284c5.2,0,7.5-2.3,7.5-7.5
		C291.6,239.6,289.2,237.3,284,237.3z"/>
	<path class="st5" d="M21.1,325c-21.5,0-40,7.6-55,22.6c-15,15-22.7,33.5-22.7,55c0,5.2,2.3,7.5,7.5,7.5c5.1,0,7.5-2.4,7.5-7.5
		c0-17.1,6.2-32,18.4-44.2C-10.7,346.2,4.1,340,21.1,340c17.1,0,32,6.2,44.2,18.4c12.2,12.3,18.4,27.1,18.4,44.2
		c0,5.2,2.3,7.5,7.5,7.5c5.1,0,7.5-2.4,7.5-7.5c0-21.4-7.6-39.9-22.7-55C61.1,332.6,42.6,325,21.1,325z"/>
	<path class="st5" d="M327.9,149.7H151.3V87.1c0-5.1-2.4-7.5-7.5-7.5H91.2c-5.1,0-7.5,2.4-7.5,7.5v62.6H-92.8
		c-9.8,0-18,3.2-24.3,9.5c-6.3,6.3-9.5,14.4-9.5,24.3v280.4c0,9.9,3.2,18,9.5,24.3c6.3,6.3,14.5,9.5,24.3,9.5h420.7
		c9.8,0,18-3.2,24.3-9.5c6.4-6.4,9.5-14.3,9.5-24.3V183.5c0-9.9-3.2-18-9.5-24.3C345.9,152.9,337.7,149.7,327.9,149.7z M98.8,94.6
		h37.5v90.1H98.8V94.6z M346.6,463.9c0,12.5-6.3,18.8-18.8,18.8H-92.8c-12.5,0-18.8-6.3-18.8-18.8V183.5c0-12.3,6.5-18.8,18.8-18.8
		H83.7v27.6c0,5.1,2.4,7.5,7.5,7.5h52.6c5.1,0,7.5-2.4,7.5-7.5v-27.6h176.5c12.5,0,18.8,6.3,18.8,18.8L346.6,463.9z"/>
	<path class="st5" d="M50.9,250.1c-8.5-8.5-18.5-12.8-29.8-12.8c-11.3,0-21.3,4.3-29.8,12.8c-8.5,8.5-12.8,18.5-12.8,29.8
		c0,11.2,4.3,21.3,12.8,29.8c8.4,8.5,18.5,12.8,29.8,12.8c11.3,0,21.3-4.3,29.8-12.8c8.5-8.5,12.8-18.5,12.8-29.8
		S59.4,258.6,50.9,250.1z M40.6,299.4c-5.3,5.3-11.9,8-19.5,8c-7.7,0-14.2-2.7-19.5-8.1c-5.3-5.3-8-11.8-8-19.5
		c0-7.6,2.7-14.2,8.1-19.5c5.4-5.3,11.9-8,19.5-8c7.6,0,14.1,2.7,19.5,8.1c5.3,5.3,8,11.9,8,19.5C48.7,287.5,46,294.1,40.6,299.4z"
		/>
</g>
</svg>
