<?xml version="1.0" encoding="utf-8"?>
<!-- Generator: Adobe Illustrator 19.0.0, SVG Export Plug-In . SVG Version: 6.00 Build 0)  -->
<svg version="1.1" id="图层_1" xmlns="http://www.w3.org/2000/svg" xmlns:xlink="http://www.w3.org/1999/xlink" x="0px" y="0px"
	 viewBox="-179 -20 600 600" style="enable-background:new -179 -20 600 600;" xml:space="preserve">
<style type="text/css">
	.st0{fill:#0cb4ce;}
</style>
<g>
	<path class="st0" d="M26.5,115.3C9.7,115.3-4,129-4,145.9v60.5h61v-60.5C57,129,43.3,115.3,26.5,115.3z M42.4,191.8H11.1v-46
		c0-8.7,7-15.8,15.7-15.8c8.7,0,15.7,7.1,15.7,15.8V191.8z"/>
	<path class="st0" d="M118.4,115.3c-16.8,0-30.5,13.7-30.5,30.5v60.5h61v-60.5C148.8,129,135.2,115.3,118.4,115.3z M134.3,191.8
		h-31.9v-46c0-8.7,7.1-15.8,15.9-15.8s15.9,7.1,15.9,15.8V191.8z"/>
	<path class="st0" d="M26.5,232.6C9.7,232.6-4,246.3-4,263.1v138.7h61V263.1C57,246.3,43.3,232.6,26.5,232.6z M42.4,386.8H11.1
		V263.1c0-8.7,7-15.8,15.7-15.8c8.7,0,15.7,7.1,15.7,15.8V386.8z"/>
	<path class="st0" d="M118.4,232.6c-16.8,0-30.5,13.7-30.5,30.5v138.7h61V263.1C148.8,246.3,135.2,232.6,118.4,232.6z M134.3,386.8
		h-31.9V263.1c0-8.7,7.1-15.8,15.9-15.8s15.9,7.1,15.9,15.8V386.8z"/>
	<path class="st0" d="M326.3,437.1h-26V172c0-28.6-22.8-51.9-50.8-51.9h-54.9l-0.3-2.1c-3.7-25.2-25.7-44.3-51.1-44.3H3.2
		c-28.7,0-52.1,23.4-52.1,52.1v311.5h-31.6c-4.1,0-8,3.8-8,7.7v41.4c0,4.2,4.1,7,8,7h406.9c4,0,6.7-2.8,6.7-7v-41.4
		C333,441.1,330.5,437.1,326.3,437.1z M194.3,134.6h55.2c20,0,36.3,16.8,36.3,37.4v265.2h-91.5V134.6z M-34.4,125.7
		c0-20.3,17.2-37.5,37.6-37.5h139.9c19.9,0,36.2,16.8,36.2,37.5v311.5H-34.4V125.7z M318.5,478.7H-74v-27h392.5V478.7z"/>
</g>
</svg>
