<?xml version="1.0" encoding="utf-8"?>
<!-- Generator: Adobe Illustrator 19.0.0, SVG Export Plug-In . SVG Version: 6.00 Build 0)  -->
<svg version="1.1" id="图层_1" xmlns="http://www.w3.org/2000/svg" xmlns:xlink="http://www.w3.org/1999/xlink" x="0px" y="0px"
	 viewBox="-179 -20 600 600" style="enable-background:new -179 -20 600 600;" xml:space="preserve">
<style type="text/css">
	.st0{fill:#0cb4ce;}
</style>
<g>
	<path class="st0" d="M8.6,68.3c-50.6,0-91.8,49.3-91.8,110c0,46.5,23.8,87.1,59.7,103.1L-35,460.5c0,23.4,19,42.4,42.4,42.4
		s42.4-19,42.3-42.8L38.2,282.3c36.9-15,62.3-56.9,62.3-104.1C100.4,117.6,59.2,68.3,8.6,68.3z M28.4,270.5l-5,1.7l0,5.3l11.8,183.1
		c0,15.4-12.5,27.9-27.9,27.9s-27.9-12.5-27.9-27.4l11.7-181.2l0.2-8.2l-4.8-1.8c-32.5-12-55.2-49.6-55.2-91.5
		c0-52.7,34.7-95.5,77.3-95.5s77.3,42.8,77.3,95.5C85.9,221.5,62.3,259.4,28.4,270.5z"/>
	<path class="st0" d="M315.2,89.8v107.9c0,32.1-21.5,61-52.2,70.3l-5.4,1.6l0.2,6.6c0,1.1,0.1,2.3,0.1,3.9l11.7,180.3
		c0,15.4-12.5,27.9-27.9,27.9s-27.9-12.5-27.9-27.4l11.7-181.2c0-1.4,0.1-2.7,0.1-4.5l0.2-5.6l-5.4-1.6
		c-30.7-9.3-52.2-38.1-52.2-70.3V89.8h-14.5v107.9c0,36.6,23.2,69.6,57.2,82.3l-11.7,180.4c0,23.4,19,42.4,42.4,42.4
		s42.4-19,42.3-42.8l-11.7-179.9c33.9-12.7,57.2-45.8,57.2-82.3l0-107.9H315.2z"/>
	<path class="st0" d="M207.3,89.8h13v101.4h-13V89.8z"/>
	<path class="st0" d="M263.3,89.8h13v101.4h-13V89.8z"/>
</g>
</svg>
