<?xml version="1.0" encoding="utf-8"?>
<!-- Generator: Adobe Illustrator 19.0.0, SVG Export Plug-In . SVG Version: 6.00 Build 0)  -->
<svg version="1.1" id="图层_1" xmlns="http://www.w3.org/2000/svg" xmlns:xlink="http://www.w3.org/1999/xlink" x="0px" y="0px"
	 viewBox="-179 -20 600 600" style="enable-background:new -179 -20 600 600;" xml:space="preserve">
<style type="text/css">
	.st0{fill:#0cb4ce;}
</style>
<g>
	<path class="st0" d="M222.3,242.5c-4,0-7.2,3.2-7.2,7.2V405c0,4,3.2,7.2,7.2,7.2s7.2-3.2,7.2-7.2V249.7
		C229.5,245.8,226.3,242.5,222.3,242.5z"/>
	<path class="st0" d="M22.7,242.5c-4,0-7.2,3.2-7.2,7.2V405c0,4,3.2,7.2,7.2,7.2s7.2-3.2,7.2-7.2V249.7
		C29.9,245.8,26.7,242.5,22.7,242.5z"/>
	<path class="st0" d="M299.9,164.9h-70.4V98.2c0-13.8-14.9-22-29.3-22H44.8c-14.4,0-29.3,8.2-29.3,22v66.7h-70.4
		c-22.3,0-40.5,18.2-40.5,40.5v244c0,22.3,18.2,40.5,40.5,40.5h354.9c22.3,0,40.5-18.2,40.5-40.5v-244
		C340.4,183,322.3,164.9,299.9,164.9z M29.9,98.2c0-4.5,7.7-7.6,14.9-7.6h155.4c7.2,0,14.9,3,14.9,7.6v66.7H29.9V98.2z M326,449.4
		c0,14.4-11.7,26.1-26.1,26.1H-54.9c-14.4,0-26.1-11.7-26.1-26.1v-244c0-14.4,11.7-26.1,26.1-26.1h354.9c14.4,0,26.1,11.7,26.1,26.1
		V449.4z"/>
</g>
</svg>
