<?xml version="1.0" standalone="no"?><!DOCTYPE svg PUBLIC "-//W3C//DTD SVG 1.1//EN" "http://www.w3.org/Graphics/SVG/1.1/DTD/svg11.dtd"><svg t="1586942287628" class="icon" viewBox="0 0 1024 1024" version="1.1" xmlns="http://www.w3.org/2000/svg" p-id="1495" xmlns:xlink="http://www.w3.org/1999/xlink" width="200" height="200"><defs><style type="text/css">html, * {  }
</style></defs><path d="M513.1 273.1c76.1 0 143.6 36.8 185.7 93.7l29.5 7.9C684.4 301.8 604.4 253 513.1 253c-44.1 0-85.6 11.4-121.7 31.3l29.4 7.9C449.2 279.9 480.4 273.1 513.1 273.1zM664.8 260l16.1 13 5-19.6 18.1-10.6-18.1-10.6-5-19.6-16.1 13-21.1-1.6 8.1 18.6-8.1 18.6L664.8 260zM385 216.2l-16.6-11.5-3.7 20.5-17 12.7 18.3 8.8 6.1 19.4 15-15.1 20.8-0.6-9-18.1 6.8-19.8L385 216.2zM540.4 188l-12.3-16-9.7 18.4-20 6.9 14.7 13.9-0.1 20.3 18.8-9.8 20 5.6-3.1-19.9 12.4-16.8L540.4 188zM765.2 314 747.8 302l-2.5 20.1L729 334.1l18.9 9.4 7.3 19.5 14.2-14.3 20.9 0.1-10.2-18.3 5.6-19.4L765.2 314zM991.4 465.9 118 231.9c-21.4-5.7-43.5 7-49.2 28.4L6.4 493.2c-5.7 21.4 7 43.5 28.4 49.2l873.4 234c21.4 5.7 43.5-7 49.2-28.4l62.4-232.9C1025.6 493.7 1012.9 471.6 991.4 465.9zM997.8 519.7l-57.2 213.5c-4.3 16-20.9 25.6-36.9 21.3L49.8 525.6c-16-4.3-25.6-20.9-21.3-36.9l57.2-213.5c4.3-16 20.9-25.6 36.9-21.3l854 228.9C992.6 487 1002.1 503.5 997.8 519.7zM513.1 142.4c167.4 0 308.2 113.7 349.5 268.1l22.3 5.9c-39.7-168.5-191.1-294-371.7-294-109.6 0-208.3 46.2-278 120l22.2 5.9C322.8 182.9 413.2 142.4 513.1 142.4zM605.3 716.1c-28.2 12.3-59.4 19.2-92.2 19.2-76.1 0-143.6-36.8-185.7-93.7l-29.5-7.9c43.9 72.9 123.9 121.7 215.2 121.7 44.1 0 85.6-11.4 121.7-31.3L605.3 716.1zM389.8 757.8l-16-13-5 19.6-17.9 10.6 17.9 10.6 5 19.6 16-13 21 1.5-8.1-18.6 8.1-18.6L389.8 757.8zM513 819.7l12.2 16 9.6-18.3 19.9-6.9-14.6-14 0.1-20.2-18.6 9.8-19.8-5.6 3.1 19.9-12.4 16.8L513 819.7zM259.1 693.4l16.4 13.2 3.9-19.9 17.1-10.8-18.1-10.7-5.8-19.8-15.1 13.3-20.7-1.5 8.8 18.8-7 18.9L259.1 693.4zM513.1 865.9c-167.4 0-308.2-113.7-349.5-268.1l-22.3-5.9c39.7 168.5 191.1 294 371.7 294 109.6 0 208.3-46.2 278-120l-22.2-5.9C703.5 825.4 613 865.9 513.1 865.9zM658.4 792.1l16.5 11.5 3.6-20.3 16.8-12.6-18.2-8.8-6.1-19.4-14.7 15-20.6 0.6 9 18-6.6 19.8L658.4 792.1zM344.3 482.7c10.9 8.7 20.8 15.6 29.5 20.8-1.3 3.4-3.4 7.3-6 12.6-5.2 10-9.6 17.8-12.6 22.9-7.9 15.6-25.2 19.9-51.6 13l-91.1-23.9c-29.9-7.8-41.2-26.9-33.4-56.8l23.5-90.2 30.8 8.3-5.2 20.3 102.4 26.9 11.7-44.2-138.8-36 7.9-29.1 169.3 44.4-26.9 102.4-133.2-34.7-10 38.1c-3.9 14.3 1.3 22.9 14.7 26.5l78.5 20.3c14.3 3 22.9 0.4 26.5-8.3 1.7-3.9 4.3-10.9 8.3-20.3C341.3 489.7 343 485.3 344.3 482.7zM479.2 574.7c10.9 3.4 41.2 11.3 90.2 22.5 12.2 3 21.6 5.6 28.2 7.3-7.3 9.6-13 17.3-16.5 23.9-44.7-11.7-83.6-22.5-117.1-32.5-21.2-5.6-35.1-15.6-41.2-29.5-14.3 6.9-24.8 13-31.2 18.2l-3.9-35.1c3-1.7 7.3-3.9 13-6 5.6-3 10-4.7 13-6l15.2-57.3-19.5-5.2 7.3-28.2 48.6 12.6-22.5 85.4C448.4 559.9 461 569.9 479.2 574.7zM436.7 390.8 464 383c6.5 16.9 11.3 32.1 15.6 45.5-0.9 0.4-6 2.2-16.5 5.2-6 1.7-10.9 3-14.3 3.9-2.2-8.3-5.2-19.9-8.7-35.1C438.4 397.4 437.1 393.5 436.7 390.8zM478.4 473.3l27.8-11.7c4.3 7.8 11.7 24.3 22.9 49.4-8.7-19.9-8.3-18.2 1.3 5.2-2.2 0.9-4.7 1.7-8.3 3.4-3 1.3-10 3.9-21.2 8.7-1.7-3.4-3.9-9.2-6.9-16.9C491.4 505.3 486.7 492.3 478.4 473.3zM569.4 448.1l9.2-34.2 30.8 8.3-9.2 34.2 29.9 7.9-6.5 25.6-29.9-7.8-18.2 69.8c-6 23.5-19.9 32.9-41.7 28.6-12.2-2.6-26.1-5.6-41.7-10 0.4-1.3 0.4-2.6 0.4-4.7 1.3-6.5 1.3-15.6 0.4-27.3 3.9 0.9 9.6 3 16.5 5.2 8.3 2.2 13.9 3.9 16.5 5.2 10.4 2.6 17.3-1.7 20.3-13.5l16-61.6L479.7 452l6.5-25.6L569.4 448.1zM775 485.7l-6.5 24.8-11.3-3-23.5 89.4 11.3 3-6.5 25.6-31.7-8.3c6.5 9.2 12.2 19.1 16.9 29.1 14.3-10.9 26.1-35.1 36-72.9l25.2-96.2 78.5 20.3-45.1 172.1c-3.4 13-11.7 18.2-25.2 16-7.3-1.3-16.5-3.4-27.8-6 0-2.6 0-6 0-11.3 0.9-7.3 0.9-13 0.4-16.9 6.9 2.6 12.6 4.3 17.3 5.6 6.5 1.7 10.4-0.9 12.2-7.3l6.9-26.5-28.2-7.3c-8.7 25.6-20.8 45.5-37.2 59.9-0.9-0.9-2.2-2.2-3.9-3.9-2.6-3.9-6.9-9.2-13-15.6l-18.2 7.3c-6.5-15.6-13-28.2-19.1-38.1l22.1-9.2-46-12.2 14.7 19.1c-13.5 8.3-26.5 16.5-39.5 24.8-2.6-3.9-6-8.7-10.4-14.7-2.6-3.9-4.7-6.5-5.6-7.8 13-6 24.8-13.5 36-21.6l-29.1-7.8 6.5-25.6 16.9 4.3 23.5-89.4-14.3-3.9 6.5-24.8 14.3 3.9 4.7-17.8 25.6 6.5-4.7 17.8 31.7 8.3 4.7-17.8 26.5 6.9-4.7 17.8L775 485.7zM679.6 566.5l-3.9 15.2 31.7 8.3 3.9-15.2L679.6 566.5zM689.2 529.6l-3.9 14.3 31.7 8.3 3.9-14.3L689.2 529.6zM699.1 492.3l-3.9 14.3 31.7 8.3 3.9-14.3L699.1 492.3zM782.3 591.6l27.3 6.9 6.9-27.3-27.3-6.9C787.1 572.9 785 582.1 782.3 591.6zM823.5 546.5l7.9-29.1-27.3-6.9-7.9 29.1L823.5 546.5z" p-id="1496" fill="#666666"></path></svg>