<?xml version="1.0" standalone="no"?><!DOCTYPE svg PUBLIC "-//W3C//DTD SVG 1.1//EN" "http://www.w3.org/Graphics/SVG/1.1/DTD/svg11.dtd"><svg t="1586942270835" class="icon" viewBox="0 0 1024 1024" version="1.1" xmlns="http://www.w3.org/2000/svg" p-id="1309" xmlns:xlink="http://www.w3.org/1999/xlink" width="200" height="200"><defs><style type="text/css">html, * {  }
</style></defs><path d="M227.154533 527.392572c-23.375383-5.718235-31.907711-19.342534-25.575492-40.893362l24.286126-90.635253 30.212092 8.095375-4.774747 17.816784 91.410919 24.493857 9.963932-37.183877-127.044488-34.042327 7.265474-27.113521 157.25658 42.136679-24.493857 91.409896-121.623012-32.588209-10.17064 37.95852c-3.289929 10.197246 0.298805 16.412808 10.775414 18.662035l73.593112 19.718087c12.115945 4.363378 20.137643 1.245364 24.085558-9.320273 0.551562-2.058892 2.029216-5.541203 4.455475-10.43056 2.169409-6.061043 3.935636-10.56973 5.285377-13.529131 10.015098 6.004761 19.125593 11.222599 27.362184 15.634072-4.869914 11.979846-9.731642 22.857591-14.556531 32.631188-7.249101 14.663978-21.394263 18.891256-42.427298 12.709463L227.154533 527.392572zM407.912363 582.468958l22.210861-82.888825c-6.588045 5.993504-13.031804 11.452843-19.34151 16.404622 2.047636-13.83817 3.693112-27.239388 4.956895-40.185234 19.786649-20.150946 37.515429-45.019333 53.196573-74.586742l26.794249 14.651698c-7.354502 12.974499-16.064884 25.871227-26.13524 38.662555l-36.117592 134.790916L407.912363 582.468958zM566.150294 624.038726c-30.53648-12.06171-52.912094-23.597441-67.116607-34.590819-9.267061 3.602038-24.871457 6.062066-46.813189 7.383154l-10.816347-27.806299c14.635325 1.158383 26.310226 0.964978 35.027771-0.577145-4.675486-7.337105-9.339716-15.787568-13.9712-25.330922l19.797905-8.809643-16.268522-4.359284 17.643845-65.846684 46.480614 12.45466 3.321652-12.394285-49.579185-13.284561 6.434549-24.013927 49.579185 13.284561 4.773723-17.817808 28.661783 7.679913-4.773723 17.817808 51.128471 13.700023-6.434549 24.013927-51.903114-13.906731-3.321652 12.394285 47.255257 12.661368-19.303648 72.043826-26.338878-7.05672 1.660826-6.198166-22.464641-6.019087c-4.086062 11.086499-9.549493 20.144806-16.408715 27.15343 12.559037 8.904811 32.965809 17.421788 61.238736 25.542746-0.798179 0.900509-1.989307 2.242064-3.569292 4.025687C573.717643 613.326756 569.085136 619.285468 566.150294 624.038726zM500.724189 558.351678c4.343935-3.817955 7.990998-9.197476 10.970866-16.156982l-27.113521-7.265474C488.839511 543.828916 494.222101 551.627533 500.724189 558.351678zM503.953743 493.623467l-5.604648 20.916379 20.141736 5.395894 5.604648-20.915355L503.953743 493.623467zM572.897975 512.097214l-20.915355-5.604648-6.378268 20.708648 21.689998 5.812379L572.897975 512.097214zM629.214608 644.25721c-1.410116-0.935302-3.202948-2.518357-5.366218-4.758374-7.402597-7.523347-13.139252-12.939707-17.235546-16.241916 10.267854-9.417487 17.821901-19.017122 22.662139-28.79993 4.685719-9.253758 9.741875-23.959691 15.137769-44.101427l23.248494-86.762039 161.129794 43.174312-39.645952 147.959843c-3.812839 18.34788-14.94027 24.771173-33.395598 19.282159-6.332219-1.153266-15.446807-3.308349-27.321252-6.490831 0.666172-8.68173 1.133823-17.689894 1.428535-27.016307 7.086395 2.455935 13.214976 4.370541 18.384719 5.756097 8.116865 2.732228 12.817933 0.671289 14.111392-6.181793l4.359284-16.268522-38.734186-10.379395-12.662391 47.25628-28.662807-7.680936 12.662391-47.255257-37.95852-10.17064C656.128585 613.003392 645.414569 629.216655 629.214608 644.25721zM673.074535 558.036499c-1.245364 4.647857-2.354628 8.78713-3.320629 12.394285l36.409235 9.755178 6.226818-23.240307-36.409235-9.755178L673.074535 558.036499zM689.057555 498.387981l-6.226818 23.239284 36.409235 9.755178 6.226818-23.23826L689.057555 498.387981zM741.052766 564.627614l-6.226818 23.240307 38.734186 10.378371 6.226818-23.239284L741.052766 564.627614zM792.863782 526.202467l-38.734186-10.379395-6.226818 23.239284 38.734186 10.379395L792.863782 526.202467zM512 297.357432c70.719668 0 133.443221 34.206056 172.547845 86.968747l27.357068 7.329942c-40.839127-67.693752-115.083062-112.963795-199.904912-112.963795-40.980343 0-79.483262 10.578939-112.952538 29.134551l27.304879 7.316639C452.590935 303.712163 481.551524 297.357432 512 297.357432zM652.945079 285.216927l14.980179 12.141528 4.617158-18.197454 16.767895-9.79918-16.767895-9.79918-4.617158-18.197454-14.980179 12.143575-19.62599-1.450025 7.512091 17.304108-7.512091 17.302061L652.945079 285.216927zM393.037585 244.49241l-15.410991-10.724249-3.363607 18.987447-15.775288 11.762905 17.012466 8.15268 5.656837 17.994839 13.879102-13.951757 19.272949-0.64059-8.43409-16.774035 6.252401-18.391882L393.037585 244.49241zM537.309432 218.257909l-11.42112-14.901385-8.977465 17.066701-18.602683 6.411013 13.727653 12.936637-0.076748 18.86465 17.460674-9.072633 18.556635 5.246491-2.935865-18.543332 11.545964-15.618723L537.309432 218.257909zM746.131435 335.440795l-16.180518-11.200086-2.301416 18.724457-15.247262 11.101849 17.648962 8.703219 6.754844 18.063401 13.204743-13.34289 19.424398 0.059352-9.485025-16.951067 5.248537-18.026562L746.131435 335.440795zM956.288852 476.464669 145.002488 259.078617c-19.913539-5.334495-40.380686 6.483668-45.719274 26.397207L41.315988 501.818103c-5.334495 19.913539 6.482645 40.382733 26.39516 45.719274l811.286364 217.381959c19.913539 5.336542 40.382733-6.480598 45.719274-26.39516l57.966203-216.34228C988.020554 502.268358 976.202391 481.799164 956.288852 476.464669zM962.239378 526.366196l-53.136198 198.312648c-4.003174 14.935154-19.354813 23.799032-34.288944 19.797905L81.556481 531.924795c-14.935154-4.003174-23.796986-19.354813-19.797905-34.288944l53.140291-198.316741c4.000104-14.935154 19.352767-23.796986 34.288944-19.795858l793.255709 212.551954C957.378673 496.077356 966.242552 511.431042 962.239378 526.366196zM512 176.038342c155.48012 0 286.266839 105.624642 324.580446 249.025657l20.653389 5.53404c-36.787858-156.61906-177.391153-273.223778-345.232812-273.223778-101.768825 0-193.520505 42.872436-258.192434 111.537306l20.632923 5.528923C335.237157 213.641775 419.22706 176.038342 512 176.038342zM597.648682 708.85546c-26.239618 11.432377-55.200206 17.786085-85.648682 17.786085-70.718645 0-133.443221-34.206056-172.548868-86.970794l-27.358091-7.330966c40.839127 67.694775 115.083062 112.965841 199.906959 112.965841 40.980343 0 79.484286-10.578939 112.953561-29.134551L597.648682 708.85546zM397.395846 747.608066l-14.860453-12.114922-4.578272 18.156522-16.633842 9.774621 16.633842 9.776667 4.578272 18.155499 14.860453-12.112875 19.463284 1.444908-7.450692-17.263176 7.450692-17.263176L397.395846 747.608066zM511.941672 805.096385l11.328 14.868639 8.904811-17.027815 18.451234-6.39464-13.617136-12.906961 0.078795-18.819624-17.318434 9.05012-18.407232-5.235235 2.911306 18.500353-11.450796 15.582907L511.941672 805.096385zM276.004101 687.780469l15.21861 12.281721 3.594875-18.472723 15.868409-9.981329-16.84669-9.897418-5.412266-18.448164-14.005992 12.354376-19.215644-1.420349 8.18952 17.533328-6.463202 17.569144L276.004101 687.780469zM512 847.961658c-155.479097 0-286.267862-105.625666-324.580446-249.02668l-20.653389-5.53404c36.786835 156.61906 177.391153 273.225825 345.233835 273.225825 101.768825 0 193.521528-42.872436 258.193457-111.537306l-20.6319-5.5279C688.763866 810.358225 604.773963 847.961658 512 847.961658zM646.923946 779.475867l15.312754 10.715039 3.302209-18.929118 15.635095-11.704576-16.898879-8.15268-5.65172-17.951861-13.746072 13.892405-19.125593 0.611937 8.401344 16.736173-6.166443 18.328437L646.923946 779.475867z" p-id="1310" fill="#666666"></path></svg>