<svg class="icon" viewBox="0 0 1024 1024" xmlns="http://www.w3.org/2000/svg" width="200" height="200"><defs><style></style></defs><path d="M579.8 511.868c-11.667 0-23.34 10.836-23.34 24.175 0 10.838 11.667 21.675 23.34 21.675 17.513 0 30.017-10.837 30.017-21.675 0-13.338-12.504-24.175-30.016-24.175zM503.099 399.31c18.342 0 30.016-11.668 30.016-29.181 0-18.343-11.673-29.18-30.016-29.18-17.508 0-34.184 10.838-34.184 29.18 0 17.514 16.676 29.181 34.184 29.181zM512.27.56C229.65.56.545 229.665.545 512.284c0 282.617 229.105 511.722 511.724 511.722 282.618 0 511.722-229.105 511.722-511.722C1023.992 229.664 794.888.56 512.27.56zm-96.712 641.368c-30.85 0-53.362-4.999-82.542-13.34l-84.207 42.525 24.182-71.706c-59.196-41.682-94.216-94.21-94.216-158.408 0-113.389 106.719-200.098 236.784-200.098 115.055 0 217.606 68.368 237.614 165.085-8.336-1.672-15.842-2.502-22.51-2.502-113.39 0-200.93 85.04-200.93 187.59 0 17.506 2.502 33.347 6.671 50.024-6.67.83-14.176.83-20.846.83zm347.67 81.706l16.672 60.033-63.363-35.85c-24.177 4.998-47.523 12.503-71.7 12.503-111.723 0-200.098-76.702-200.098-171.747 0-95.046 88.376-171.75 200.098-171.75 105.883 0 200.929 76.704 200.929 171.75 0 53.355-35.85 100.878-82.538 135.06zM338.02 340.949c-17.509 0-35.85 10.838-35.85 29.18 0 17.513 18.341 29.186 35.85 29.186 16.676 0 30.015-11.673 30.015-29.186 0-18.342-13.339-29.18-30.015-29.18zm372.683 170.92c-12.509 0-23.347 10.835-23.347 24.174 0 10.838 10.838 21.675 23.347 21.675 16.672 0 29.18-10.837 29.18-21.675 0-13.338-12.508-24.175-29.18-24.175zm0 0" fill="#47ce7a"/></svg>